<mxfile host="app.diagrams.net" modified="2024-03-26T10:09:23.262Z" agent="Mozilla/5.0 (Windows NT 10.0; Win64; x64) AppleWebKit/537.36 (KHTML, like Gecko) Chrome/122.0.0.0 Safari/537.36" etag="8Q7o3XMybp838Y7MCfJ0" version="24.1.0" type="github">
  <diagram name="Page-1" id="e7e014a7-5840-1c2e-5031-d8a46d1fe8dd">
    <mxGraphModel dx="1404" dy="557" grid="1" gridSize="10" guides="1" tooltips="1" connect="1" arrows="1" fold="1" page="1" pageScale="1" pageWidth="1169" pageHeight="826" background="none" math="0" shadow="0">
      <root>
        <mxCell id="0" />
        <mxCell id="1" parent="0" />
        <mxCell id="2" value="JWT Login Module" style="swimlane;whiteSpace=wrap;startSize=23;" parent="1" vertex="1">
          <mxGeometry x="164.5" y="128" width="285.5" height="572" as="geometry" />
        </mxCell>
        <mxCell id="FUu8IDAjwCSwaBuSf1DH-62" value="" style="edgeStyle=orthogonalEdgeStyle;rounded=0;orthogonalLoop=1;jettySize=auto;html=1;" edge="1" parent="2" source="FUu8IDAjwCSwaBuSf1DH-41">
          <mxGeometry relative="1" as="geometry">
            <mxPoint x="139.99999999999977" y="230.0000000000001" as="targetPoint" />
          </mxGeometry>
        </mxCell>
        <mxCell id="FUu8IDAjwCSwaBuSf1DH-41" value="&lt;div style=&quot;box-sizing:border-box;width:100%;background:#e4e4e4;padding:2px;&quot;&gt;user&lt;/div&gt;&lt;table style=&quot;width:100%;font-size:1em;&quot; cellpadding=&quot;2&quot; cellspacing=&quot;0&quot;&gt;&lt;tbody&gt;&lt;tr&gt;&lt;td&gt;&lt;table style=&quot;font-size: 1em; background-color: initial; width: 176px;&quot; cellpadding=&quot;2&quot; cellspacing=&quot;0&quot;&gt;&lt;tbody&gt;&lt;tr&gt;&lt;td&gt;PK&lt;/td&gt;&lt;td&gt;id&lt;/td&gt;&lt;/tr&gt;&lt;tr&gt;&lt;td&gt;&lt;/td&gt;&lt;td&gt;username&lt;/td&gt;&lt;/tr&gt;&lt;tr&gt;&lt;td&gt;&lt;/td&gt;&lt;td&gt;password&lt;br&gt;&lt;/td&gt;&lt;/tr&gt;&lt;/tbody&gt;&lt;/table&gt;&lt;/td&gt;&lt;td&gt;&lt;br&gt;&lt;/td&gt;&lt;/tr&gt;&lt;/tbody&gt;&lt;/table&gt;&lt;table style=&quot;font-size: 1em; width: 184px;&quot; cellpadding=&quot;2&quot; cellspacing=&quot;0&quot;&gt;&lt;tbody&gt;&lt;tr&gt;&lt;td&gt;&lt;/td&gt;&lt;td&gt;&lt;table style=&quot;font-size: 1em; background-color: initial; width: 176px;&quot; cellpadding=&quot;2&quot; cellspacing=&quot;0&quot;&gt;&lt;tbody&gt;&lt;tr&gt;&lt;td&gt;&lt;span style=&quot;white-space: pre;&quot;&gt;&#x9;&lt;/span&gt;&amp;nbsp;authority&lt;/td&gt;&lt;/tr&gt;&lt;/tbody&gt;&lt;/table&gt;&lt;/td&gt;&lt;td&gt;&lt;br&gt;&lt;/td&gt;&lt;/tr&gt;&lt;/tbody&gt;&lt;/table&gt;" style="verticalAlign=top;align=left;overflow=fill;html=1;rounded=0;shadow=0;comic=0;labelBackgroundColor=none;strokeWidth=1;fontFamily=Verdana;fontSize=12" vertex="1" parent="2">
          <mxGeometry x="50" y="42" width="180" height="108" as="geometry" />
        </mxCell>
        <mxCell id="FUu8IDAjwCSwaBuSf1DH-51" value="&lt;div style=&quot;box-sizing:border-box;width:100%;background:#e4e4e4;padding:2px;&quot;&gt;user_to_room&lt;/div&gt;&lt;table style=&quot;width:100%;font-size:1em;&quot; cellpadding=&quot;2&quot; cellspacing=&quot;0&quot;&gt;&lt;tbody&gt;&lt;tr&gt;&lt;td&gt;&lt;table style=&quot;font-size: 1em; background-color: initial; width: 176px;&quot; cellpadding=&quot;2&quot; cellspacing=&quot;0&quot;&gt;&lt;tbody&gt;&lt;tr&gt;&lt;td&gt;&lt;table style=&quot;font-size: 1em; background-color: initial; width: 176px;&quot; cellpadding=&quot;2&quot; cellspacing=&quot;0&quot;&gt;&lt;tbody&gt;&lt;tr&gt;&lt;td&gt;FK&lt;/td&gt;&lt;td&gt;user_id&lt;/td&gt;&lt;/tr&gt;&lt;tr&gt;&lt;td&gt;FK&lt;/td&gt;&lt;td&gt;room_id&lt;/td&gt;&lt;/tr&gt;&lt;/tbody&gt;&lt;/table&gt;&lt;/td&gt;&lt;td&gt;&lt;br&gt;&lt;/td&gt;&lt;/tr&gt;&lt;tr&gt;&lt;td&gt;&lt;br&gt;&lt;/td&gt;&lt;td&gt;&lt;br&gt;&lt;/td&gt;&lt;/tr&gt;&lt;/tbody&gt;&lt;/table&gt;&lt;/td&gt;&lt;td&gt;&lt;br&gt;&lt;/td&gt;&lt;/tr&gt;&lt;/tbody&gt;&lt;/table&gt;" style="verticalAlign=top;align=left;overflow=fill;html=1;rounded=0;shadow=0;comic=0;labelBackgroundColor=none;strokeWidth=1;fontFamily=Verdana;fontSize=12" vertex="1" parent="2">
          <mxGeometry x="181" y="272" width="104.5" height="80" as="geometry" />
        </mxCell>
        <mxCell id="FUu8IDAjwCSwaBuSf1DH-50" value="" style="edgeStyle=orthogonalEdgeStyle;html=1;endArrow=ERoneToMany;startArrow=ERmandOne;labelBackgroundColor=none;fontFamily=Verdana;fontSize=12;align=left;entryX=0;entryY=0.5;entryDx=0;entryDy=0;exitX=0.5;exitY=1;exitDx=0;exitDy=0;" edge="1" parent="2" source="FUu8IDAjwCSwaBuSf1DH-41" target="FUu8IDAjwCSwaBuSf1DH-51">
          <mxGeometry width="100" height="100" relative="1" as="geometry">
            <mxPoint x="105.5" y="202" as="sourcePoint" />
            <mxPoint x="365.5" y="312" as="targetPoint" />
          </mxGeometry>
        </mxCell>
        <mxCell id="FUu8IDAjwCSwaBuSf1DH-49" value="&lt;div style=&quot;box-sizing:border-box;width:100%;background:#e4e4e4;padding:2px;&quot;&gt;user_to_group&lt;/div&gt;&lt;table style=&quot;width:100%;font-size:1em;&quot; cellpadding=&quot;2&quot; cellspacing=&quot;0&quot;&gt;&lt;tbody&gt;&lt;tr&gt;&lt;td&gt;&lt;table style=&quot;font-size: 1em; background-color: initial; width: 176px;&quot; cellpadding=&quot;2&quot; cellspacing=&quot;0&quot;&gt;&lt;tbody&gt;&lt;tr&gt;&lt;td&gt;&lt;table style=&quot;font-size: 1em; background-color: initial; width: 176px;&quot; cellpadding=&quot;2&quot; cellspacing=&quot;0&quot;&gt;&lt;tbody&gt;&lt;tr&gt;&lt;td&gt;FK&lt;/td&gt;&lt;td&gt;user_id&lt;/td&gt;&lt;/tr&gt;&lt;tr&gt;&lt;td&gt;FK&lt;/td&gt;&lt;td&gt;group_id&lt;/td&gt;&lt;/tr&gt;&lt;/tbody&gt;&lt;/table&gt;&lt;/td&gt;&lt;td&gt;&lt;br&gt;&lt;/td&gt;&lt;/tr&gt;&lt;tr&gt;&lt;td&gt;&lt;br&gt;&lt;/td&gt;&lt;td&gt;&lt;br&gt;&lt;/td&gt;&lt;/tr&gt;&lt;/tbody&gt;&lt;/table&gt;&lt;/td&gt;&lt;td&gt;&lt;br&gt;&lt;/td&gt;&lt;/tr&gt;&lt;/tbody&gt;&lt;/table&gt;" style="verticalAlign=top;align=left;overflow=fill;html=1;rounded=0;shadow=0;comic=0;labelBackgroundColor=none;strokeWidth=1;fontFamily=Verdana;fontSize=12" vertex="1" parent="2">
          <mxGeometry x="181" y="167" width="104.5" height="80" as="geometry" />
        </mxCell>
        <mxCell id="FUu8IDAjwCSwaBuSf1DH-42" value="" style="edgeStyle=orthogonalEdgeStyle;html=1;endArrow=ERoneToMany;startArrow=ERmandOne;labelBackgroundColor=none;fontFamily=Verdana;fontSize=12;align=left;exitX=0.5;exitY=1;entryX=0;entryY=0.5;entryDx=0;entryDy=0;exitDx=0;exitDy=0;" edge="1" parent="2" source="FUu8IDAjwCSwaBuSf1DH-41" target="FUu8IDAjwCSwaBuSf1DH-49">
          <mxGeometry width="100" height="100" relative="1" as="geometry">
            <mxPoint x="5.499999999999773" y="252" as="sourcePoint" />
            <mxPoint x="365.5" y="162" as="targetPoint" />
          </mxGeometry>
        </mxCell>
        <mxCell id="3" value="Grouping Module" style="swimlane;whiteSpace=wrap;startSize=23;fillColor=default;" parent="1" vertex="1">
          <mxGeometry x="450" y="128" width="274.5" height="572" as="geometry" />
        </mxCell>
        <mxCell id="FUu8IDAjwCSwaBuSf1DH-43" value="&lt;div style=&quot;box-sizing:border-box;width:100%;background:#e4e4e4;padding:2px;&quot;&gt;group&lt;/div&gt;&lt;table style=&quot;width:100%;font-size:1em;&quot; cellpadding=&quot;2&quot; cellspacing=&quot;0&quot;&gt;&lt;tbody&gt;&lt;tr&gt;&lt;td&gt;&lt;table style=&quot;font-size: 1em; background-color: initial; width: 176px;&quot; cellpadding=&quot;2&quot; cellspacing=&quot;0&quot;&gt;&lt;tbody&gt;&lt;tr&gt;&lt;td&gt;PK&lt;/td&gt;&lt;td&gt;id&lt;/td&gt;&lt;/tr&gt;&lt;tr&gt;&lt;td&gt;&lt;/td&gt;&lt;td&gt;name&lt;/td&gt;&lt;/tr&gt;&lt;tr&gt;&lt;td&gt;&lt;/td&gt;&lt;td&gt;&lt;br&gt;&lt;/td&gt;&lt;/tr&gt;&lt;/tbody&gt;&lt;/table&gt;&lt;/td&gt;&lt;td&gt;&lt;br&gt;&lt;/td&gt;&lt;/tr&gt;&lt;/tbody&gt;&lt;/table&gt;" style="verticalAlign=top;align=left;overflow=fill;html=1;rounded=0;shadow=0;comic=0;labelBackgroundColor=none;strokeWidth=1;fontFamily=Verdana;fontSize=12" vertex="1" parent="3">
          <mxGeometry x="47.25" y="172" width="180" height="70" as="geometry" />
        </mxCell>
        <mxCell id="FUu8IDAjwCSwaBuSf1DH-45" value="&lt;div style=&quot;box-sizing:border-box;width:100%;background:#e4e4e4;padding:2px;&quot;&gt;room&lt;/div&gt;&lt;table style=&quot;width:100%;font-size:1em;&quot; cellpadding=&quot;2&quot; cellspacing=&quot;0&quot;&gt;&lt;tbody&gt;&lt;tr&gt;&lt;td&gt;&lt;table style=&quot;font-size: 1em; background-color: initial; width: 176px;&quot; cellpadding=&quot;2&quot; cellspacing=&quot;0&quot;&gt;&lt;tbody&gt;&lt;tr&gt;&lt;td&gt;PK&lt;/td&gt;&lt;td&gt;id&lt;/td&gt;&lt;/tr&gt;&lt;tr&gt;&lt;td&gt;&lt;/td&gt;&lt;td&gt;name&lt;/td&gt;&lt;/tr&gt;&lt;tr&gt;&lt;td&gt;FK&lt;/td&gt;&lt;td&gt;group_id&lt;/td&gt;&lt;/tr&gt;&lt;/tbody&gt;&lt;/table&gt;&lt;/td&gt;&lt;td&gt;&lt;br&gt;&lt;/td&gt;&lt;/tr&gt;&lt;/tbody&gt;&lt;/table&gt;&lt;span style=&quot;white-space: pre;&quot;&gt;&#x9;&lt;/span&gt;&amp;nbsp; &amp;nbsp; visibility" style="verticalAlign=top;align=left;overflow=fill;html=1;rounded=0;shadow=0;comic=0;labelBackgroundColor=none;strokeWidth=1;fontFamily=Verdana;fontSize=12" vertex="1" parent="3">
          <mxGeometry x="47.25" y="257" width="180" height="110" as="geometry" />
        </mxCell>
        <mxCell id="FUu8IDAjwCSwaBuSf1DH-44" value="" style="edgeStyle=orthogonalEdgeStyle;html=1;endArrow=ERoneToMany;startArrow=ERmandOne;labelBackgroundColor=none;fontFamily=Verdana;fontSize=12;align=left;exitX=0.5;exitY=1;entryX=0.5;entryY=0;entryDx=0;entryDy=0;" edge="1" parent="3" source="FUu8IDAjwCSwaBuSf1DH-43" target="FUu8IDAjwCSwaBuSf1DH-45">
          <mxGeometry width="100" height="100" relative="1" as="geometry">
            <mxPoint x="355.5" y="392" as="sourcePoint" />
            <mxPoint x="205.5" y="232" as="targetPoint" />
          </mxGeometry>
        </mxCell>
        <mxCell id="4" value="Message Module" style="swimlane;whiteSpace=wrap;fillColor=default;strokeColor=#000000;" parent="1" vertex="1">
          <mxGeometry x="724.5" y="128" width="285.5" height="572" as="geometry" />
        </mxCell>
        <mxCell id="FUu8IDAjwCSwaBuSf1DH-47" value="&lt;div style=&quot;box-sizing:border-box;width:100%;background:#e4e4e4;padding:2px;&quot;&gt;message&lt;/div&gt;&lt;table style=&quot;font-size: 1em; width: 180px;&quot; cellpadding=&quot;2&quot; cellspacing=&quot;0&quot;&gt;&lt;tbody&gt;&lt;tr&gt;&lt;td&gt;PK&lt;/td&gt;&lt;td&gt;id&lt;/td&gt;&lt;/tr&gt;&lt;tr&gt;&lt;td&gt;FK&lt;/td&gt;&lt;td&gt;&lt;span style=&quot;font-family: Verdana; text-wrap: nowrap;&quot;&gt;room_id&lt;/span&gt;&lt;br&gt;&lt;/td&gt;&lt;/tr&gt;&lt;/tbody&gt;&lt;/table&gt;&lt;table style=&quot;font-size: 1em; width: 180px;&quot; cellpadding=&quot;2&quot; cellspacing=&quot;0&quot;&gt;&lt;tbody&gt;&lt;tr&gt;&lt;td&gt;FK&lt;/td&gt;&lt;td&gt;&lt;span style=&quot;font-family: Verdana; text-wrap: nowrap;&quot;&gt;&amp;nbsp; &amp;nbsp; &amp;nbsp; user_id&lt;/span&gt;&lt;/td&gt;&lt;/tr&gt;&lt;tr&gt;&lt;td&gt;&lt;br&gt;&lt;/td&gt;&lt;td&gt;&lt;span style=&quot;white-space: pre;&quot;&gt;&#x9;&lt;/span&gt;message_content&lt;/td&gt;&lt;/tr&gt;&lt;/tbody&gt;&lt;/table&gt;&lt;table style=&quot;font-size: 1em; width: 180px;&quot; cellpadding=&quot;2&quot; cellspacing=&quot;0&quot;&gt;&lt;tbody&gt;&lt;tr&gt;&lt;td&gt;&lt;br&gt;&lt;/td&gt;&lt;td&gt;&lt;span style=&quot;font-family: Verdana; text-wrap: nowrap;&quot;&gt;&lt;span style=&quot;white-space: pre;&quot;&gt;&#x9;&lt;/span&gt;&amp;nbsp;post_header&lt;/span&gt;&lt;br&gt;&lt;/td&gt;&lt;/tr&gt;&lt;tr&gt;&lt;td&gt;&amp;nbsp;&lt;/td&gt;&lt;td&gt;&lt;span style=&quot;font-family: Verdana; text-wrap: nowrap;&quot;&gt;&lt;span style=&quot;white-space: pre;&quot;&gt;&#x9;&lt;/span&gt;&amp;nbsp;post_content&lt;/span&gt;&lt;br style=&quot;font-family: Verdana; text-wrap: nowrap;&quot;&gt;&lt;/td&gt;&lt;/tr&gt;&lt;/tbody&gt;&lt;/table&gt;&lt;table style=&quot;font-size: 1em; width: 180px;&quot; cellpadding=&quot;2&quot; cellspacing=&quot;0&quot;&gt;&lt;tbody&gt;&lt;tr&gt;&lt;td&gt;&lt;table style=&quot;font-size: 1em; width: 180px;&quot; cellpadding=&quot;2&quot; cellspacing=&quot;0&quot;&gt;&lt;tbody&gt;&lt;tr&gt;&lt;td&gt;FK&lt;/td&gt;&lt;td&gt;server_id&lt;/td&gt;&lt;/tr&gt;&lt;/tbody&gt;&lt;/table&gt;&lt;/td&gt;&lt;td&gt;&lt;br&gt;&lt;/td&gt;&lt;/tr&gt;&lt;tr&gt;&lt;td&gt;&lt;span style=&quot;white-space: pre;&quot;&gt;&#x9;&lt;/span&gt;&amp;nbsp; &amp;nbsp; &amp;nbsp; &amp;nbsp;type&lt;span style=&quot;white-space: pre;&quot;&gt;&#x9;&lt;/span&gt;&lt;span style=&quot;white-space: pre;&quot;&gt;&#x9;&lt;/span&gt;&lt;br&gt;&lt;/td&gt;&lt;td&gt;&lt;br&gt;&lt;/td&gt;&lt;/tr&gt;&lt;/tbody&gt;&lt;/table&gt;&lt;table style=&quot;font-size: 1em; width: 180px;&quot; cellpadding=&quot;2&quot; cellspacing=&quot;0&quot;&gt;&lt;tbody&gt;&lt;tr&gt;&lt;td&gt;&lt;br&gt;&lt;/td&gt;&lt;td&gt;&amp;nbsp; &amp;nbsp; &amp;nbsp; &amp;nbsp; &amp;nbsp; &amp;nbsp; time&lt;/td&gt;&lt;/tr&gt;&lt;/tbody&gt;&lt;/table&gt;" style="verticalAlign=top;align=left;overflow=fill;html=1;whiteSpace=wrap;" vertex="1" parent="4">
          <mxGeometry x="42.75" y="362" width="200" height="200" as="geometry" />
        </mxCell>
        <mxCell id="FUu8IDAjwCSwaBuSf1DH-54" value="&lt;h1 style=&quot;margin-top: 0px;&quot;&gt;Heading&lt;/h1&gt;&lt;p&gt;Lorem ipsum dolor sit amet, consectetur adipisicing elit, sed do eiusmod tempor incididunt ut labore et dolore magna aliqua.&lt;/p&gt;" style="text;html=1;whiteSpace=wrap;overflow=hidden;rounded=0;strokeColor=#FF0800;" vertex="1" parent="4">
          <mxGeometry x="52.75" y="222" width="180" height="120" as="geometry" />
        </mxCell>
        <mxCell id="FUu8IDAjwCSwaBuSf1DH-55" value="Text" style="text;html=1;align=center;verticalAlign=middle;whiteSpace=wrap;rounded=0;strokeColor=#0378FF;" vertex="1" parent="4">
          <mxGeometry x="172.75" y="162" width="60" height="30" as="geometry" />
        </mxCell>
        <mxCell id="FUu8IDAjwCSwaBuSf1DH-60" style="edgeStyle=orthogonalEdgeStyle;rounded=0;orthogonalLoop=1;jettySize=auto;html=1;exitX=1;exitY=0.5;exitDx=0;exitDy=0;entryX=1;entryY=0.5;entryDx=0;entryDy=0;strokeColor=#FF1900;" edge="1" parent="4" source="FUu8IDAjwCSwaBuSf1DH-56" target="FUu8IDAjwCSwaBuSf1DH-54">
          <mxGeometry relative="1" as="geometry">
            <Array as="points">
              <mxPoint x="346" y="476" />
              <mxPoint x="346" y="282" />
            </Array>
          </mxGeometry>
        </mxCell>
        <mxCell id="FUu8IDAjwCSwaBuSf1DH-56" value="" style="rounded=0;whiteSpace=wrap;html=1;fillColor=none;strokeColor=#FF1900;" vertex="1" parent="4">
          <mxGeometry x="85.5" y="460" width="120" height="32" as="geometry" />
        </mxCell>
        <mxCell id="FUu8IDAjwCSwaBuSf1DH-59" style="edgeStyle=orthogonalEdgeStyle;rounded=0;orthogonalLoop=1;jettySize=auto;html=1;exitX=1;exitY=0.5;exitDx=0;exitDy=0;entryX=1;entryY=0.5;entryDx=0;entryDy=0;strokeColor=#0378FF;" edge="1" parent="4" source="FUu8IDAjwCSwaBuSf1DH-57" target="FUu8IDAjwCSwaBuSf1DH-55">
          <mxGeometry relative="1" as="geometry">
            <Array as="points">
              <mxPoint x="306" y="447" />
              <mxPoint x="306" y="177" />
            </Array>
          </mxGeometry>
        </mxCell>
        <mxCell id="FUu8IDAjwCSwaBuSf1DH-57" value="" style="rounded=0;whiteSpace=wrap;html=1;fillColor=none;strokeColor=#0378FF;" vertex="1" parent="4">
          <mxGeometry x="85.5" y="437" width="120" height="20" as="geometry" />
        </mxCell>
        <mxCell id="FUu8IDAjwCSwaBuSf1DH-46" value="" style="edgeStyle=orthogonalEdgeStyle;html=1;endArrow=ERoneToMany;startArrow=ERmandOne;labelBackgroundColor=none;fontFamily=Verdana;fontSize=12;align=left;exitX=0.5;exitY=1;exitDx=0;exitDy=0;entryX=0;entryY=0.5;entryDx=0;entryDy=0;" edge="1" parent="1" source="FUu8IDAjwCSwaBuSf1DH-45" target="FUu8IDAjwCSwaBuSf1DH-47">
          <mxGeometry width="100" height="100" relative="1" as="geometry">
            <mxPoint x="650" y="480" as="sourcePoint" />
            <mxPoint x="1020" y="240" as="targetPoint" />
          </mxGeometry>
        </mxCell>
        <mxCell id="FUu8IDAjwCSwaBuSf1DH-53" value="" style="edgeStyle=orthogonalEdgeStyle;html=1;endArrow=ERoneToMany;startArrow=ERmandOne;labelBackgroundColor=none;fontFamily=Verdana;fontSize=12;align=left;entryX=0;entryY=0.5;entryDx=0;entryDy=0;exitX=1;exitY=0.5;exitDx=0;exitDy=0;" edge="1" parent="1" source="FUu8IDAjwCSwaBuSf1DH-51" target="FUu8IDAjwCSwaBuSf1DH-45">
          <mxGeometry width="100" height="100" relative="1" as="geometry">
            <mxPoint x="520" y="400" as="sourcePoint" />
            <mxPoint x="570" y="340" as="targetPoint" />
          </mxGeometry>
        </mxCell>
        <mxCell id="FUu8IDAjwCSwaBuSf1DH-52" value="" style="edgeStyle=orthogonalEdgeStyle;html=1;endArrow=ERoneToMany;startArrow=ERmandOne;labelBackgroundColor=none;fontFamily=Verdana;fontSize=12;align=left;exitX=1;exitY=0.5;entryX=0;entryY=0.5;entryDx=0;entryDy=0;exitDx=0;exitDy=0;" edge="1" parent="1" source="FUu8IDAjwCSwaBuSf1DH-49" target="FUu8IDAjwCSwaBuSf1DH-43">
          <mxGeometry width="100" height="100" relative="1" as="geometry">
            <mxPoint x="660" y="375" as="sourcePoint" />
            <mxPoint x="660" y="430" as="targetPoint" />
          </mxGeometry>
        </mxCell>
      </root>
    </mxGraphModel>
  </diagram>
</mxfile>
